<svg id="Layer_1" data-name="Layer 1" xmlns="http://www.w3.org/2000/svg"
     viewBox="0 0 732.37 874.13">
    <defs>
        <clipPath id="clip-path" transform="translate(-173.81 -540.98)">
            <circle id="SVGID" cx="398.31" cy="872.68" r="81.8"
                    style="fill:none;stroke:#8bae94;stroke-miterlimit:10;stroke-width:0px"/>
        </clipPath>
        <clipPath id="clip-path-2" transform="translate(-173.81 -540.98)">
            <circle id="SVGID-2" cx="398.31" cy="790.88" r="81.8"
                    style="fill:none;stroke:#8bae94;stroke-miterlimit:10;stroke-width:0px"/>
        </clipPath>
        <clipPath id="clip-path-3" transform="translate(-173.81 -540.98)">
            <circle id="SVGID-3" cx="681.69" cy="872.68" r="81.8"
                    style="fill:none;stroke:#8bae94;stroke-miterlimit:10;stroke-width:0px"/>
        </clipPath>
        <clipPath id="clip-path-4" transform="translate(-173.81 -540.98)">
            <circle id="SVGID-4" cx="681.69" cy="790.88" r="81.8"
                    style="fill:none;stroke:#8bae94;stroke-miterlimit:10;stroke-width:0px"/>
        </clipPath>
    </defs>
    <path d="M786.1,985.75c0,2.1-.38,2.21-1.23,3.94a13.79,13.79,0,0,0-2.23,3.47c-1.17,2.49-1.15,1.71-2.14,4.82-7.38,23.06-20.37,43.23-28.1,66.18a26.52,26.52,0,0,1-4.71,8.7c-12.47,14.56-25.42,21.32-33.37,38.55-2.18,4.71-6.06,7.61-10.74,10.08-19.56,10.3-50.75,18.11-70.5,28-9,4.5-18.75,7.53-28.38,10.52-13.26,4.13-18,9-17.51,22.54.65,18.29,2,36.57,3.69,54.79.73,7.94,3.2,15.61,10.3,20.76,7.61,5.52,16.16,5.42,24.84,4.28,4.93-.64,9.8-1.82,14.71-2.64,11.59-1.94,21.58,1.09,30.24,9.22a176.53,176.53,0,0,0,18,14.91c2.6,1.86,6.41,2.37,9.76,2.75,9.18,1,18.78-.59,27.34,4.26a22.92,22.92,0,0,1,5.92,4.41c3.15,3.57,1.51,10.32-2.92,10.36-18.2.19-37.17,4.55-53.77-6.92-4.89-3.37-9.13-7.78-13.32-12-6.94-7.06-14.76-10.33-24.79-7.9a117.92,117.92,0,0,1-16.28,2.29c-19,1.89-39-9.95-43.52-30.21a236.41,236.41,0,0,1-4-80.25c1.48-12.09,8.77-19.29,20.57-22.84,12.17-3.67,31.39-3,42.73-8.63,16.33-8.05,25.12-8.7,40.92-17.8.71-.4,3.64-1.36,4.83-2.56-.7-1.19-.48-1-1.52-2.56a7.83,7.83,0,0,1-1.5-3c-1.15-3,2.28-4,3-4.59,1.63-1.19,1.55-.4,4.55-2.11,4.62-2.64,14-1.84,17-5.15,12-13.32,22.37-28.17,34.19-41.69a21.15,21.15,0,0,0,3.49-7c7.07-20.34,19.4-37.9,26.39-58.27.48-1.41,1.34-3,1.12-4.29-.29-1.77-1.07-4-2.4-4.9-1-.67-3.83-.12-4.71.89-3.24,3.66-7,7.34-8.75,11.74-6.78,17.45-22.22,29.19-28.56,46.8-.93,2.57-.57,6.34-4.91,5.26a6.31,6.31,0,0,0-5,1.49c-8.63,9.25-21.75,14.86-30.36,24.14-.77.83-1.62.33-2.83.66s-3.61.77-4.07.82c-8.84.92-6.29.67-14.59,4.34-5.07,2.24-13.57,5.86-18.83,6.53-11.11,1.43-24.94-.76-32.52,8.18-3.66,4.31-8.82,7.37-13.43,10.81a3.36,3.36,0,0,1-3.15-.16,3,3,0,0,1-.3-2.94c9.2-11.29,19.17-19.84,24.48-32.6,2.25-5.4,5.86-9,11.33-11.8,6.34-3.24,11.71-8.37,17.27-13.51-7.91-.78-14-3.14-16.15-10.39-5.2,2.89-10.63,5.14-15.12,8.61-6.1,4.72-15.25,7.11-21,12.34-4,3.68-10.35,7.17-15,9.78-20.48,11.56-30.88,27.85-29.34,51.52.56,8.51,2.21,15.94,2.26,25.15,0,1.3-7.42.25-8.49.36s-6.74,0-7-1.13c-2.15-10.79-3.58-20.58-3.14-32.53.8-21.46-9.94-39.83-28.8-50.29-5.42-3-12.71-7.11-18.16-10.23-8.5-4.86-21.29-6.67-28.62-10.57-3.83-2-16.51.23-20.34-2.25-1.7,8.1-6.12,10.22-13.75,10.13a32.21,32.21,0,0,0,14.58,13.79c9.9,5,23.57,8.26,26,18.32,2.48,10.35,18.35,13.16,25.94,21.36a6.22,6.22,0,0,1,1,2.25c.09.27-.09.64-.31,1.87-2-.39-8.45-.66-10.13-1.37-6.75-2.83-15.71-6.3-18.74-9.91-7.93-9.41-19-4.47-28.66-7.26-3-.87-7.2-.86-10.23-1.66a19.64,19.64,0,0,1-5.29-2.47c-2.25-1.41-3.93-2.44-6.58-2.65-9.93-.76-20.42-2.88-26.78-2.88-12-3.55-15.49-7.27-23.86-14.62-4.24-3.72-9.29-7-15.89-8-.81-.12-1.61-1.94-2-3.11-5.68-17.49-11.09-35.07-17-52.47a34.53,34.53,0,0,0-7-11.18c-1.44-1.63-4.6-1.75-7-2.56-.54,2.47-1.79,5.05-1.45,7.4.5,3.55,2.11,6.94,3.24,10.41,5.07,15.61,11.13,31,14.82,46.93,2.1,9.06,6.5,15.11,12.7,21.39,8.49,8.63,16,18.28,23.34,28,4.84,6.42,10.51,8.64,17.43,12.46,3.95,2.19,4.24,7.1.27,11,8.83,5.52,21.49,5.28,30,10.87,16.9,11.07,59.42,8.22,78.5,14.52,12.26,4.05,18.57,12.22,20.17,24.34,1,7.55,1.79,15.32,1.09,22.84-1.71,18.52-2.9,37.28-7,55.33s-12.41,34.72-26.92,47.32c-7.07,6.14-15.9,7.85-24.76,9.41-2.45.43-4.92.83-7.32,1.47-7.16,1.9-11.91,6.36-13.83,13.6a49.82,49.82,0,0,1-22.08,30.23c-3.61,2.32-6.63,5.55-9.94,8.34-2.65,2.22-6,3.47-8.63,1.15-2.1-1.84-4.26-5.29-4-7.76.42-3.89,2.78-7.59,4.51-11.28a7.87,7.87,0,0,1,2.44-2.47,63.5,63.5,0,0,0,21.55-30.94c3.9-11.83,13.67-17.41,25.33-20.12,7.67-1.79,15.31-3.77,23-5.66l-.13-1.31c-8.48-1.84-16.93-3.9-25.46-5.47a21.27,21.27,0,0,0-19.29,5.72c-3.15,3-6.53,5.7-9.66,8.69-6.56,6.29-14.16,10.31-23.28,11.44-10.71,1.33-21.37,3.13-32.1,4.08a9,9,0,0,1-7.09-3.8c-1-1.78-.05-5.44,1.2-7.59,3.51-6,9.69-8.45,16-10.13,4-1.06,8.26-2,12.32-1.78,11.34.7,19.68-4.86,27.59-11.83,6-5.26,11.82-10.65,19.95-12.66,10.62-2.61,20.68-.1,30.87,2.43a81.9,81.9,0,0,0,13.74,1.8c8.44.64,16-3,19.22-14.81,3.47-12.55,5-25.68,6.89-38.62a199,199,0,0,0,1.74-22.9,63.79,63.79,0,0,0-1.22-13.85c-1.09-5.58-4.79-9-10.19-11.16-12.62-5-39.4-1.67-51.17-8.27-18.4-10.33-50.47-13.09-68.19-24.59a19.44,19.44,0,0,1-6.86-7.75,154,154,0,0,0-29.23-40.81,47.07,47.07,0,0,1-12.09-20.26c-6.28-21.11-12.8-42.17-19.92-63a26.1,26.1,0,0,0-2.12-5.1c-.31-2.25-1.42-2.71-1.85-3.68-1.56-3.54-2.62-5.43.82-7.2.08,0,.5-.92.61-1.09,3.56-5.46,7.82-8.11,13.77-9.86,0-9.08-.8-14.36,9.49-19.81,3-2.2,2.66-1.53,4.25-2.52,4.15-1.49,3.25-1.48,7.34-1.61,1.4.15,3.18.3,3.9.36,10.2.9,11.88,6.6,16.52,14.31l10,23.82c8.74,16.58,17.13,34.26,32,46.85,1.71-4.85,2.42-9.82,5-13.52,6.9-10,17.31-9.94,28.37-3.17,7.66,4.69,23.5,9.11,31.54,13.06,14.09,6.92,25.78,5.79,40.07,13,2,1,10.87,6.22,12.91,7.16,14.41,6.62,23.59,19.76,30.11,35.09.85-1.33,7.67-11.52,8-12,7.37-11.23,28.78-18.48,33.12-21.58,9.21-6.58,19.25-13.61,30-17.92s17.63-6.24,26-12c.1-.07,3.11-1.64,3.21-1.71,3.65-2.59,8.84-5.85,12.86-7.31,11.76-4.25,16-2.31,18.48,9.76.7,3.43-.24,7.2-.42,10.64,19.47-13.9,31.38-18.89,42.28-39.27.67-2.41,4.89-8,5.12-9.25,2.43-5.7,2.37-8.53,4.33-14.49A84.61,84.61,0,0,0,729.52,957c1.69-4.38,5.75-7.79,10.29-9.78,3.21-1.41,1-.48,5.12-1.41a26.67,26.67,0,0,1,8.39.88,21,21,0,0,1,4.77,2.18c10.23,3.08,12.62,6.2,11.09,21.37,8.46,1.33,10,2.46,14.63,9.14a6.46,6.46,0,0,0,1.28,1.63,3.17,3.17,0,0,1,.88,1.74C786,985,786.1,983.41,786.1,985.75Zm-32.56-13.69c1.59-1.33,1.16-7-.32-9.52-1.88-3.15-5.56-1.19-7.69.93a24.38,24.38,0,0,0-5.34,7.54,316.38,316.38,0,0,1-20.92,42c-4.41,7.27-10.82,12.62-16.3,19.16-11.15,13.32-47.18,18-70.51,49.46,20.48-5.7,73.73-27.91,87.64-45.94,5.28-10.52,11-19.41,15.26-30.37C740,993.5,743.07,980.91,753.54,972.06Zm-94.28,53.12c-1.46-2.36-2.43-5.8-4.52-6.72-1.54-.68-4.71,1.68-6.82,3.17a35.33,35.33,0,0,0-6.18,5.74c-1.27,1.45-3.26,4.07-2.76,4.94,1.27,2.21,3.46,4.69,5.78,5.36C651.72,1039.68,658.22,1033.66,659.26,1025.18ZM440,1076.28c.2-.45.4-.89.59-1.34-6.62-5-22.42-5-29-9.91-2.05-.74-2.42-1.49-4.83-2.5-12.14-9.41-20.23-11.23-30.39-19.9a46.19,46.19,0,0,1-12.47-17c-8-18.14-16-36.65-23.35-55.09-1.9-4.77-5-8.24-10-9.65a5.43,5.43,0,0,0-4.39,1c-1.86,1.69-.33,8.83,1.42,10.85,3.43,4,7.75,7.8,9.52,12.51,6.64,17.64,12.4,35.61,18.53,53.44.36,1.06,3.8,4,4.55,4.75,9.38,9.81,20.8,13.94,30.27,23.67a7.89,7.89,0,0,0,3.06,1.37c6.88,2.28,22.56,1.44,29.42,3.77C428.45,1074.1,434.4,1074.23,440,1076.28Zm-9.23-40.6c2.34-2.14,3.39-4.43.38-7.08s-5.83-5.93-9.06-8.51c-1.42-1.13-4.19-2.25-5.4-1.6-1.87,1-2.94,3.53-4.09,5.06.86,3.31,1.17,5.84,2.15,8.06C417.68,1038.35,425.63,1040.32,430.72,1035.68Z"
          transform="translate(-173.81 -540.98)" style="fill:#8bae94"/>
    <path d="M685.79,1374.78c.5,2.68-.23,6.57-2,8.41-1.56,1.66-6,2.57-7.95,1.54a284.5,284.5,0,0,1-29.77-17.09c-7-4.71-7.79-13.51-9.12-21-2.28-12.8-9.07-19.74-21.6-22.68-10.89-2.56-22.11-4.7-31.62-11.31-3.5-2.43-6.88-5.07-11.3-8.34,1.19,8.79,2.43,16.05,8.75,21.65,5.84,5.18,11.16,11,16.56,16.6,4.16,4.36,6.73,9.45,6,15.76-.15,1.48.21,3,0,4.49-1.18,9.67.84,18,7.54,25.7,2.83,3.24,4,8.81,4.08,13.36.17,6.13-6.22,9.31-10.91,5.43-10.93-9-21.26-19-19.74-34.91,1.12-11.67-2.11-20.55-11.67-27.7-14.23-10.66-18.35-26.33-19.32-43.09-.4-7-.16-14,.06-21a28,28,0,0,1,1.58-6.76c1-3.34,3.33-3.59,5.79-1.88,5.44,3.75,11.13,7.27,16,11.69a95.12,95.12,0,0,0,44.53,23.24c18,3.9,30,14.11,33.73,32.26,2.24,11,8.5,17.34,18,22C679.11,1364.07,684.51,1368,685.79,1374.78Z"
          transform="translate(-173.81 -540.98)" style="fill:#8bae94"/>
    <path d="M537.35,1379.61c3.7,7,8,14,7.33,22.35a22.63,22.63,0,0,1-3,9.74c-3.08,5-8.86,4.34-11.37-.91-4.7-9.85-9.48-19.67-14-29.61-4-8.72-3.39-17.45.8-26a74.77,74.77,0,0,1,4.39-8.37c5.55-8.42,5.93-17.19,3-26.66-1.91-6.23-2.78-12.78-4.31-20.1-4,5.55-8.67,11-12.18,17a62.77,62.77,0,0,1-17.23,19.77c-1.34,1-2.56,2.15-3.9,3.12-7.31,5.3-9.48,12.39-7.81,21.08a49.44,49.44,0,0,1-4,32.05c-.14.3-.23.63-.38.92-2.93,5.56-7.34,8.32-11.3,7.06-3.49-1.1-5.6-6-5-11.94a47.26,47.26,0,0,1,1.2-7.89c2.14-7.76,1-15.47,0-23.19-1.8-13.41,2.66-24.26,13.45-32.36s18.81-18.66,26.17-29.86c6.33-9.63,14.4-17.34,26.08-20.39,1.92-.5,3.44-2.35,5.31-3.27,1.49-.73,3.63-1.8,4.76-1.25a6.74,6.74,0,0,1,3.19,4.46,56.27,56.27,0,0,1,.21,10.47,91.28,91.28,0,0,0,5.15,33.84c3.28,9.47,2.82,18.46-1.66,27.39-2,4-3.55,8.23-5.56,12.22C533.15,1366.28,533.69,1372.74,537.35,1379.61Z"
          transform="translate(-173.81 -540.98)" style="fill:#8bae94"/>
    <g id="flor">
        <path d="M785.41,790.88q0,4.75-.19,9.46a244.7,244.7,0,0,1-32.63,113.22.53.53,0,0,1-.06.1h0A245.1,245.1,0,0,1,540,1036.29h0a246.33,246.33,0,0,1-60.2-7.44q-10.41-2.64-20.47-6.14-5.28-1.83-10.44-3.91A241.81,241.81,0,0,1,425.5,1008a245.8,245.8,0,0,1-61.41-46c-7.09-7.28-18.18-16.44-36.65-48.38a245.42,245.42,0,0,1,0-245.41h0l0-.05a245.68,245.68,0,0,1,36.63-48.36q7.46-7.66,15.55-14.65,4.19-3.64,8.55-7.07h0a244.71,244.71,0,0,1,21.05-14.87q7.93-5,16.27-9.42A242.64,242.64,0,0,1,448.86,563q5.17-2.07,10.46-3.91,10.05-3.49,20.47-6.12A245.16,245.16,0,0,1,540,545.48h0a245.85,245.85,0,0,1,60.2,7.44c6.94,1.74,13.77,3.8,20.47,6.13,3.52,1.22,7,2.53,10.45,3.9a241.6,241.6,0,0,1,23.36,10.82q8.32,4.4,16.28,9.42a243,243,0,0,1,21,14.87h0c2.91,2.3,5.76,4.65,8.56,7.08q8.08,7,15.53,14.64a245.75,245.75,0,0,1,36.63,48.34l0,0h0a.08.08,0,0,1,0,0,243.59,243.59,0,0,1,28.51,76.65q1,5.45,1.82,11a246,246,0,0,1,2.32,25.63C785.35,784.58,785.41,787.73,785.41,790.88Z"
              transform="translate(-173.81 -540.98)"
              style="fill:none;stroke:#8bae94;stroke-miterlimit:10;stroke-width:9px"/>
        <circle id="z" cx="366.19" cy="249.91" r="81.8"
                style="fill:none;stroke:#8bae94;stroke-miterlimit:10;stroke-width:2px"/>
        <g id="t">
            <g id="s">
                <circle cx="366.19" cy="331.71" r="81.8"
                        style="fill:none;stroke:#8bae94;stroke-miterlimit:10;stroke-width:2px"/>
                <g id="a">
                    <circle id="c" cx="366.19" cy="413.51" r="81.8"
                            style="fill:none;stroke:#8bae94;stroke-miterlimit:10;stroke-width:2px"/>
                    <circle cx="366.19" cy="413.51" r="81.8"
                            style="fill:none;stroke:#8bae94;stroke-miterlimit:10;stroke-width:0px"/>
                    <path d="M540.15,1036.55l-.15-.24v0h0c1.2,0,2.39,0,3.58,0,1.4,0,2.79,0,4.18-.09,1.18,0,2.36-.08,3.53-.14,2.72-.12,5.42-.29,8.12-.5,1.23-.09,2.47-.2,3.7-.32l.45,0c1.12-.1,2.23-.22,3.34-.34s2.52-.28,3.78-.44,2.51-.32,3.76-.5c1-.14,2-.28,3-.44l1.5-.23c1-.16,2-.32,3-.5l3.32-.59.68-.13,3.1-.61.28-.06c1.23-.25,2.45-.51,3.67-.78q3.66-.81,7.27-1.72l2.6-.67,2.43-.65,2.73-.77,2.47-.72,2.64-.81c.85-.26,1.69-.53,2.54-.81,1.69-.54,3.37-1.11,5-1.69"
                          transform="translate(-173.81 -540.98)"
                          style="fill:none;stroke:#8bae94;stroke-miterlimit:10;stroke-width:2px"/>
                    <path d="M691.82,983.71A244.55,244.55,0,0,1,540,1036.29h0a81.81,81.81,0,1,1,151.83-52.58Z"
                          transform="translate(-173.81 -540.98)"
                          style="fill:none;stroke:#8bae94;stroke-miterlimit:10;stroke-width:2px"/>
                    <path d="M539.52,1037.12l.05-.09,0-.08c.13-.21.27-.43.39-.64v0c.22-.37.43-.75.64-1.13l0-.05,0-.06.06-.1.51-.94.37-.69c.12-.23.24-.46.35-.69.2-.38.4-.77.58-1.16a80.24,80.24,0,0,0,6.93-20.74c.33-1.68.6-3.38.81-5.09,0-.41.1-.81.14-1.21.1-.88.18-1.76.25-2.64s.11-1.49.15-2.23c.06-1.38.1-2.77.1-4.17A82.81,82.81,0,0,0,550,983a.75.75,0,0,0,0-.2c-.1-.64-.2-1.28-.32-1.91s-.25-1.34-.38-2-.28-1.32-.44-2-.27-1.18-.43-1.76-.33-1.28-.51-1.92c-.11-.4-.22-.8-.34-1.19q-.41-1.32-.84-2.64c-.13-.42-.28-.85-.44-1.27s-.29-.85-.46-1.27l-.48-1.26c-.16-.42-.32-.84-.51-1.26s-.33-.84-.52-1.25c-.37-.83-.74-1.66-1.13-2.49-.18-.42-.38-.83-.59-1.24-.6-1.24-1.24-2.47-1.92-3.67-.22-.41-.44-.81-.68-1.21a77.74,77.74,0,0,0-4.34-6.72c-.24-.35-.49-.69-.75-1s-.26-.36-.4-.54c-.73-1-1.47-1.91-2.24-2.84-.42-.51-.84-1-1.27-1.5s-.86-1-1.3-1.47c-1.32-1.45-2.7-2.86-4.11-4.21a82.3,82.3,0,0,0-10.71-8.62l-1.51-1c-.2-.14-.41-.27-.62-.39l-1.19-.74c-.56-.35-1.13-.68-1.7-1s-1-.59-1.55-.87c-.88-.48-1.77-.95-2.68-1.4-.67-.34-1.35-.66-2-1s-1.55-.71-2.34-1A1.39,1.39,0,0,1,501,920q-2.31-1-4.7-1.81c-1.24-.45-2.49-.86-3.76-1.22a73.15,73.15,0,0,0-7.66-1.88c-.92-.19-1.85-.35-2.78-.5l-.9-.14c-.54-.08-1.08-.16-1.62-.22s-1.37-.17-2.06-.24a83.12,83.12,0,0,0-23.59,1c-.89.17-1.79.36-2.67.55l-1.33.31-.34.08c-.76.19-1.53.39-2.28.6-1.81.5-3.61,1.06-5.4,1.7l-1.26.46c-.43.15-.85.31-1.27.48-.74.29-1.48.59-2.21.9a3.49,3.49,0,0,1-.34.15c-.4.17-.8.34-1.2.53q-3.17,1.41-6.16,3.09c-.41.22-.81.45-1.21.69-.78.44-1.54.9-2.3,1.38s-1.21.76-1.81,1.16l-.65.43c-.33.21-.65.44-1,.67l-1.32.93c-.17.12-.34.24-.51.38-.57.41-1.13.84-1.69,1.27a.55.55,0,0,0-.17.14c-.63.48-1.25,1-1.86,1.48a.86.86,0,0,0-.18.16,82.57,82.57,0,0,0-14.19,15.27c-.47.66-.93,1.32-1.38,2-.11.16-.22.31-.31.47-.3.46-.6.92-.89,1.39s-.41.64-.6,1c-.38.61-.75,1.23-1.11,1.85h0c-.24.4-.47.8-.69,1.21l0,0c-.3.55-.6,1.1-.89,1.65s-.57,1.1-.84,1.65a80.69,80.69,0,0,0-7.69,24.69h0A246.37,246.37,0,0,0,425.5,1008a242.74,242.74,0,0,0,23.37,10.8"
                          transform="translate(-173.81 -540.98)"
                          style="fill:none;stroke:#8bae94;stroke-miterlimit:10;stroke-width:2px"/>
                    <path d="M654.49,1008a81.33,81.33,0,0,0-43.63-12.61h0A81.78,81.78,0,0,0,540.77,1035l0,.06,0,0a.33.33,0,0,1,0,.06c-.24.39-.46.77-.68,1.16,0,0,0,0,0,0v0c-.14.23-.28.48-.41.72l-.05.09"
                          transform="translate(-173.81 -540.98)"
                          style="fill:none;stroke:#8bae94;stroke-miterlimit:10;stroke-width:2px"/>
                    <path d="M425.5,1008a81.34,81.34,0,0,1,43.64-12.61h0A81.77,81.77,0,0,1,540,1036.27v0l.14.24"
                          transform="translate(-173.81 -540.98)"
                          style="fill:none;stroke:#8bae94;stroke-miterlimit:10;stroke-width:2px"/>
                    <path d="M459.33,1022.71c0-.24.07-.48.12-.71.25-1.46.54-2.9.88-4.33.11-.47.22-.93.34-1.39s.29-1.14.45-1.71.29-1,.44-1.54.27-.92.41-1.38c.65-2,1.37-4.06,2.18-6q.23-.58.48-1.17c.25-.59.5-1.18.77-1.76s.47-1,.71-1.54c.08-.18.17-.36.26-.53s.25-.52.38-.77.25-.51.39-.77c.21-.42.43-.84.65-1.25s.31-.58.47-.87c.29-.53.58-1.05.88-1.57h0l.15-.27c.64-1.12,1.32-2.21,2-3.29.27-.43.55-.85.84-1.28.73-1.08,1.49-2.15,2.28-3.2q.58-.79,1.2-1.56t1.23-1.53a1,1,0,0,1,.16-.19c.24-.31.5-.6.76-.9a3.31,3.31,0,0,1,.35-.41c.35-.41.71-.81,1.07-1.21.12-.15.26-.3.4-.45.45-.5.9-1,1.38-1.46s.77-.8,1.16-1.19a1.67,1.67,0,0,1,.23-.23c.31-.31.62-.62.93-.91l.24-.23,1.44-1.34c.48-.44,1-.87,1.47-1.3s1-.85,1.5-1.27l.21-.18c.35-.29.7-.58,1.06-.85a2.26,2.26,0,0,1,.26-.2c.45-.36.91-.71,1.37-1.05a.13.13,0,0,1,.06,0l.51-.39c.43-.32.88-.64,1.32-.94s.86-.62,1.3-.91l.2-.14c.62-.42,1.26-.84,1.89-1.24l.54-.34c.49-.31,1-.62,1.51-.92l.4-.23q1-.59,1.95-1.11c.15-.1.31-.18.46-.26.58-.31,1.16-.62,1.75-.92,1.22-.63,2.45-1.22,3.71-1.78l.84-.38.85-.36,1.51-.62c.5-.21,1-.4,1.52-.59s1-.38,1.53-.56l1.55-.53c.47-.16.93-.31,1.4-.45l1.63-.49c1.46-.42,2.94-.8,4.43-1.14l.95-.21,1.1-.23,1.74-.33q1-.18,2-.33c.7-.11,1.41-.2,2.11-.29l.67-.08c1.26-.16,2.52-.28,3.79-.36.29,0,.57-.05.86-.06,1-.07,2-.11,3-.13l2.1,0h.09c.68,0,1.35,0,2,0l.81,0,1.31.06c.71,0,1.42.08,2.12.14l1.15.1,1.32.13c.54,0,1.07.11,1.6.18l1.81.25.29,0c.66.1,1.31.21,2,.33l1.52.29,1.51.31,1,.22q1,.23,2,.48l.08,0c.71.18,1.42.38,2.11.58l1.35.4c.45.13.89.27,1.33.42l.9.3a81.26,81.26,0,0,1,9.68,4l1.33.67c.59.3,1.17.61,1.75.92s.89.49,1.33.74l1.43.83,1.5.92,1,.62c.13.08.26.16.38.25.54.34,1.07.7,1.59,1.06s1,.7,1.51,1.06a.13.13,0,0,1,.07.06c.34.23.67.48,1,.73,1.1.81,2.19,1.66,3.25,2.54.39.32.77.64,1.14,1,.87.73,1.73,1.5,2.57,2.29.21.19.43.39.64.6s.42.4.63.61a.38.38,0,0,1,.11.11c.19.17.37.35.56.55a.17.17,0,0,1,.06.06l.61.62c.43.42.84.85,1.24,1.28.21.22.42.44.62.67s.57.61.83.92.55.6.81.91c.58.66,1.14,1.34,1.69,2,.38.45.74.91,1.09,1.37.53.68,1.06,1.38,1.56,2.08q.39.53.75,1c.89,1.25,1.73,2.52,2.54,3.82.47.75.93,1.51,1.36,2.27,0,0,0,0,0,0h0c.3.52.59,1,.88,1.57.16.29.32.58.47.87s.44.83.65,1.25c.14.26.27.51.39.77s.26.51.38.77.18.35.26.53c.24.51.48,1,.71,1.54s.52,1.17.77,1.76q.25.59.48,1.17c.81,2,1.53,4,2.18,6,.14.46.28.92.41,1.38s.3,1,.44,1.54.31,1.14.45,1.71.23.92.34,1.39c.34,1.43.63,2.87.88,4.33.05.23.09.47.12.71"
                          transform="translate(-173.81 -540.98)"
                          style="fill:none;stroke:#8bae94;stroke-miterlimit:10;stroke-width:2px"/>
                </g>
                <g id="a-2">
                    <circle id="c-2" cx="437.03" cy="372.61" r="81.8"
                            style="fill:none;stroke:#8bae94;stroke-miterlimit:10;stroke-width:2px"/>
                    <circle cx="437.03" cy="372.61" r="81.8"
                            style="fill:none;stroke:#8bae94;stroke-miterlimit:10;stroke-width:0px"/>
                    <path d="M752.55,913.6a81.81,81.81,0,1,0-121.4,105.2" transform="translate(-173.81 -540.98)"
                          style="fill:none;stroke:#8bae94;stroke-miterlimit:10;stroke-width:2px"/>
                    <circle cx="366.19" cy="413.51" r="81.8"
                            style="fill:none;stroke:#8bae94;stroke-miterlimit:10;stroke-width:2px"/>
                    <path d="M600.23,1028.83a81.14,81.14,0,0,1,10.6-33.44v0a81.76,81.76,0,0,1,70.85-40.88"
                          transform="translate(-173.81 -540.98)"
                          style="fill:none;stroke:#8bae94;stroke-miterlimit:10;stroke-width:2px"/>
                    <path d="M620.68,1022.71a81.19,81.19,0,0,0-9.82-27.32h0s0,0,0,0A81.75,81.75,0,0,0,540,954.49h0a81.77,81.77,0,0,0-70.85,40.89h0a81.19,81.19,0,0,0-9.82,27.32"
                          transform="translate(-173.81 -540.98)"
                          style="fill:none;stroke:#8bae94;stroke-miterlimit:10;stroke-width:2px"/>
                    <path d="M540,1036.29a81.81,81.81,0,0,1,70.85-122.7h0a81.78,81.78,0,0,1,81,70.12"
                          transform="translate(-173.81 -540.98)"
                          style="fill:none;stroke:#8bae94;stroke-miterlimit:10;stroke-width:2px"/>
                </g>
            </g>
            <g id="s-2">
                <circle cx="295.34" cy="290.81" r="81.8"
                        style="fill:none;stroke:#8bae94;stroke-miterlimit:10;stroke-width:1.99999997307765px"/>
                <g id="a-3">
                    <circle id="c-3" cx="224.5" cy="331.71" r="81.8"
                            style="fill:none;stroke:#8bae94;stroke-miterlimit:10;stroke-width:1.99999997307765px"/>
                    <g style="clip-path:url(#clip-path)">
                        <circle cx="224.5" cy="413.51" r="81.8"
                                style="fill:none;stroke:#8bae94;stroke-miterlimit:10;stroke-width:1.99999997307765px"/>
                        <circle cx="153.66" cy="290.81" r="81.8"
                                style="fill:none;stroke:#8bae94;stroke-miterlimit:10;stroke-width:1.99999997307765px"/>
                        <circle cx="153.66" cy="454.41" r="81.8"
                                style="fill:none;stroke:#8bae94;stroke-miterlimit:10;stroke-width:1.99999997307765px"/>
                        <circle cx="82.82" cy="331.71" r="81.8"
                                style="fill:none;stroke:#8bae94;stroke-miterlimit:10;stroke-width:1.99999997307765px"/>
                        <circle cx="153.66" cy="372.61" r="81.8"
                                style="fill:none;stroke:#8bae94;stroke-miterlimit:10;stroke-width:1.99999997307765px"/>
                    </g>
                    <circle id="SVGID-5" cx="224.5" cy="331.71" r="81.8"
                            style="fill:none;stroke:#8bae94;stroke-miterlimit:10;stroke-width:0px"/>
                </g>
                <g id="a-4">
                    <circle id="c-4" cx="295.34" cy="372.61" r="81.8"
                            style="fill:none;stroke:#8bae94;stroke-miterlimit:10;stroke-width:1.99999997307765px"/>
                    <circle cx="295.34" cy="372.61" r="81.8"
                            style="fill:none;stroke:#8bae94;stroke-miterlimit:10;stroke-width:0px"/>
                    <path d="M539.52,1037.12l.05-.09.43-.72v0c.23-.39.45-.78.67-1.18l0-.06,0,0,0-.09A81.82,81.82,0,0,0,399.1,953.13l0,0,0,.06,0,0c-.25.42-.49.82-.72,1.23h0c-.24.4-.47.8-.69,1.21l0,0a82.28,82.28,0,0,0-9.41,28"
                          transform="translate(-173.81 -540.98)"
                          style="fill:none;stroke:#8bae94;stroke-miterlimit:10;stroke-width:1.99999997307765px"/>
                    <circle cx="224.5" cy="331.71" r="81.8"
                            style="fill:none;stroke:#8bae94;stroke-miterlimit:10;stroke-width:1.99999997307765px"/>
                    <path d="M479.79,1028.85a81.22,81.22,0,0,0-10.63-33.45h0a81.74,81.74,0,0,0-70.8-40.91h0A81.06,81.06,0,0,0,364.09,962"
                          transform="translate(-173.81 -540.98)"
                          style="fill:none;stroke:#8bae94;stroke-miterlimit:10;stroke-width:1.99999997307765px"/>
                    <path d="M379.62,976.63a81.45,81.45,0,0,0,18-20.91,0,0,0,0,1,0,0c.24-.39.48-.78.7-1.19l0,0q.36-.6.69-1.23l0,0,0-.06a81.77,81.77,0,0,0-.76-80.48h0a81.76,81.76,0,0,0-69.22-40.89h-3.26a81.25,81.25,0,0,0-26.92,5.14"
                          transform="translate(-173.81 -540.98)"
                          style="fill:none;stroke:#8bae94;stroke-miterlimit:10;stroke-width:1.99999997307765px"/>
                    <path d="M327.44,913.61h0a81.8,81.8,0,0,1,141.7,0v0a81.72,81.72,0,0,1,.73,80.52.26.26,0,0,1-.05.09c-.21.4-.44.79-.67,1.19h0c-.21.38-.42.75-.65,1.12v0a81.2,81.2,0,0,1-19.62,22.26"
                          transform="translate(-173.81 -540.98)"
                          style="fill:none;stroke:#8bae94;stroke-miterlimit:10;stroke-width:1.99999997307765px"/>
                </g>
            </g>
        </g>
        <g id="t-2">
            <g id="s-3">
                <circle cx="295.34" cy="209" r="81.8"
                        style="fill:none;stroke:#8bae94;stroke-miterlimit:10;stroke-width:1.99999997307765px"/>
                <g id="a-5">
                    <circle id="c-5" cx="224.5" cy="168.1" r="81.8"
                            style="fill:none;stroke:#8bae94;stroke-miterlimit:10;stroke-width:1.99999997307765px"/>
                    <circle cx="224.5" cy="168.1" r="81.8"
                            style="fill:none;stroke:#8bae94;stroke-miterlimit:10;stroke-width:0px"/>
                    <path d="M297.09,825.94a81,81,0,0,0,28.8,5.84l1.58,0,1.62,0a81.82,81.82,0,0,0-1.61-163.62h0"
                          transform="translate(-173.81 -540.98)"
                          style="fill:none;stroke:#8bae94;stroke-miterlimit:10;stroke-width:1.99999997307765px"/>
                    <path d="M326.74,666.92l0,0,.68,1.2h0" transform="translate(-173.81 -540.98)"
                          style="fill:none;stroke:#8bae94;stroke-miterlimit:10;stroke-width:1.99999997307765px"/>
                    <path d="M327.44,668.16h0l.73,1.24A81.81,81.81,0,1,0,448.88,563"
                          transform="translate(-173.81 -540.98)"
                          style="fill:none;stroke:#8bae94;stroke-miterlimit:10;stroke-width:1.99999997307765px"/>
                    <path d="M294.78,781.45A81.38,81.38,0,0,0,327.45,750l0,0h0a81.76,81.76,0,0,0,.71-80.58c-.23-.42-.46-.83-.7-1.24l0,0c-.23-.4-.46-.8-.7-1.18l0,0"
                          transform="translate(-173.81 -540.98)"
                          style="fill:none;stroke:#8bae94;stroke-miterlimit:10;stroke-width:1.99999997307765px"/>
                    <path d="M409.23,583.19a81.54,81.54,0,0,1-10.9,44.08h0v0a81.79,81.79,0,0,1-70.84,40.9h-.05"
                          transform="translate(-173.81 -540.98)"
                          style="fill:none;stroke:#8bae94;stroke-miterlimit:10;stroke-width:1.99999997307765px"/>
                    <path d="M298.91,744.85A81.82,81.82,0,0,0,399.07,628.6a0,0,0,0,0,0,0c-.24-.44-.48-.86-.73-1.29h0c-.25-.44-.51-.86-.77-1.29,0,0,0,0,0-.06s0,0,0,0a81,81,0,0,0-17.88-20.75"
                          transform="translate(-173.81 -540.98)"
                          style="fill:none;stroke:#8bae94;stroke-miterlimit:10;stroke-width:1.99999997307765px"/>
                </g>
                <g id="a-6">
                    <circle id="c-6" cx="224.5" cy="249.91" r="81.8"
                            style="fill:none;stroke:#8bae94;stroke-miterlimit:10;stroke-width:1.99999997307765px"/>
                    <g style="clip-path:url(#clip-path-2)">
                        <circle cx="153.66" cy="290.81" r="81.8"
                                style="fill:none;stroke:#8bae94;stroke-miterlimit:10;stroke-width:1.99999997307765px"/>
                        <circle cx="224.5" cy="168.1" r="81.8"
                                style="fill:none;stroke:#8bae94;stroke-miterlimit:10;stroke-width:1.99999997307765px"/>
                        <circle cx="82.82" cy="249.91" r="81.8"
                                style="fill:none;stroke:#8bae94;stroke-miterlimit:10;stroke-width:1.99999997307765px"/>
                        <circle cx="153.66" cy="127.2" r="81.8"
                                style="fill:none;stroke:#8bae94;stroke-miterlimit:10;stroke-width:1.99999997307765px"/>
                        <circle cx="153.66" cy="209" r="81.8"
                                style="fill:none;stroke:#8bae94;stroke-miterlimit:10;stroke-width:1.99999997307765px"/>
                    </g>
                    <circle id="SVGID-6" cx="224.5" cy="249.91" r="81.8"
                            style="fill:none;stroke:#8bae94;stroke-miterlimit:10;stroke-width:0px"/>
                </g>
            </g>
            <g id="s-4">
                <circle cx="366.19" cy="168.1" r="81.8"
                        style="fill:none;stroke:#8bae94;stroke-miterlimit:10;stroke-width:1.99999994615531px"/>
                <g id="a-7">
                    <circle id="c-7" cx="366.19" cy="86.3" r="81.8"
                            style="fill:none;stroke:#8bae94;stroke-miterlimit:10;stroke-width:1.99999994615531px"/>
                    <circle cx="366.19" cy="86.3" r="81.8"
                            style="fill:none;stroke:#8bae94;stroke-miterlimit:10;stroke-width:0px"/>
                    <path d="M388.18,598.06h0A81.81,81.81,0,1,0,540,545.48" transform="translate(-173.81 -540.98)"
                          style="fill:none;stroke:#8bae94;stroke-miterlimit:10;stroke-width:1.99999994615531px"/>
                    <path d="M540.74,544.19c-.07.12-.14.24-.2.36l0,.06h0l-.1.14-.41.72-.11.18c-.13.23-.26.45-.38.69l-.1.17,0,0-.6,1.11c-.42.76-.83,1.54-1.2,2.32a79.93,79.93,0,0,0-6.81,19.63c-.36,1.66-.65,3.35-.9,5a.11.11,0,0,1,0,.08,1.36,1.36,0,0,1,0,.2c-.12.86-.23,1.72-.32,2.58,0,.37-.08.73-.12,1.1l-.12,1.45c-.15,2.08-.24,4.18-.24,6.3a82.1,82.1,0,0,0,1.66,16.48c.28,1.34.58,2.65.92,4,.18.72.38,1.43.59,2.14s.41,1.42.63,2.13c.14.42.27.84.42,1.27.29.85.59,1.7.9,2.54a78.15,78.15,0,0,0,4.49,10c.21.41.43.82.66,1.22s.45.81.68,1.21c.47.82,1,1.63,1.46,2.42.24.41.5.79.76,1.19.63,1,1.26,1.91,1.93,2.84.37.54.76,1.07,1.15,1.59s.85,1.14,1.3,1.69.73.92,1.11,1.38a82.73,82.73,0,0,0,16.24,15c.42.31.86.61,1.31.9s.88.59,1.32.87,1.11.7,1.66,1l.62.38,1.28.74.77.44c.44.25.9.49,1.35.73.91.49,1.82,1,2.74,1.41s1.86.88,2.8,1.3l1,.43,1.22.51c.4.17.81.33,1.22.48l1.23.47c.41.16.82.31,1.24.45.82.3,1.65.58,2.49.83.42.14.84.27,1.26.38.82.25,1.65.49,2.48.7a1.8,1.8,0,0,1,.22.06c.73.19,1.45.37,2.18.54l1.5.33c.43.1.85.19,1.28.26l.69.13c.23,0,.45.09.69.12l.17,0,1,.17c.44.08.87.14,1.3.2l1.73.24,1.74.2,2.07.18c2.07.16,4.18.24,6.29.24a84.91,84.91,0,0,0,10.27-.63l1.43-.19,2.28-.36c1.51-.27,3-.57,4.5-.92.65-.15,1.32-.31,2-.48s1.3-.34,2-.52l1.85-.56.52-.17c.56-.16,1.1-.35,1.65-.53l.68-.25c.63-.21,1.25-.44,1.87-.68s1.38-.52,2.07-.81l1.69-.72.81-.36,1.24-.57c.42-.19.83-.39,1.24-.6.82-.39,1.65-.81,2.45-1.26s1.63-.89,2.44-1.35l0,0c.69-.39,1.36-.8,2-1.22s1.23-.76,1.83-1.16q1.41-.91,2.76-1.89a82.06,82.06,0,0,0,21.34-22.45c.27-.41.54-.84.8-1.27.36-.59.71-1.18,1.05-1.76l0-.08c.31-.57.63-1.13,1-1.7,0,0,0,0,0,0q.5-.87.93-1.77t1-2c.32-.67.64-1.36.94-2.05a80.15,80.15,0,0,0,6.3-21.71"
                          transform="translate(-173.81 -540.98)"
                          style="fill:none;stroke:#8bae94;stroke-miterlimit:10;stroke-width:1.99999994615531px"/>
                    <path d="M540.74,544.19l0,.08,0,.07c-.21.39-.42.77-.64,1.14h0c-.16.29-.33.57-.5.86l-.1.17a81.75,81.75,0,0,1-70.24,39.86h0a81.46,81.46,0,0,1-43.65-12.61"
                          transform="translate(-173.81 -540.98)"
                          style="fill:none;stroke:#8bae94;stroke-miterlimit:10;stroke-width:1.99999994615531px"/>
                    <path d="M631.13,563a241.6,241.6,0,0,1,23.36,10.82,81.45,81.45,0,0,1-43.64,12.61h0A81.77,81.77,0,0,1,540,545.49h0"
                          transform="translate(-173.81 -540.98)"
                          style="fill:none;stroke:#8bae94;stroke-miterlimit:10;stroke-width:1.99999994615531px"/>
                    <path d="M459.32,559.05c.1.61.21,1.23.33,1.83.07.37.14.74.23,1.1s.13.69.21,1,.2.93.31,1.4l0,.1s0,0,0,0c.13.6.28,1.19.44,1.78s.31,1.18.49,1.77q.43,1.53.93,3l.3.9a81,81,0,0,0,6.56,14.39c.44.76.89,1.52,1.36,2.26s.76,1.22,1.16,1.81c.87,1.33,1.79,2.63,2.74,3.91.42.56.84,1.11,1.28,1.67l.59.73c.19.25.39.5.59.73.38.47.76.92,1.15,1.36l.32.38c.41.48.84.95,1.27,1.41s.78.86,1.18,1.28l.68.7c.23.24.45.47.69.7.46.46.93.92,1.4,1.36L485,606l1.25,1.1,1.49,1.28a1.3,1.3,0,0,0,.23.18c.5.42,1,.83,1.53,1.24l1.33,1L492.4,612c.2.14.38.28.57.4.46.33.92.64,1.38,1l.81.54c.63.42,1.27.83,1.92,1.22q2,1.25,4.1,2.38c.65.35,1.33.7,2,1q1.77.9,3.6,1.71l.94.41,1,.43,1.54.62,1.45.55c1.42.53,2.86,1,4.32,1.45.39.13.79.25,1.19.35.73.22,1.47.42,2.21.62l1.65.4c.62.15,1.25.29,1.87.42l1.8.36,1.35.24c.48.09,1,.16,1.45.24.92.14,1.85.27,2.79.38l1.14.12,1.35.13.51,0,1,.08,1.4.08c.77,0,1.55.07,2.33.08.62,0,1.25,0,1.87,0h0l1.84,0c.48,0,1,0,1.45,0l1,0a81.48,81.48,0,0,0,10.8-1.28c1.37-.25,2.72-.54,4.05-.86l.15,0c.32-.08.64-.15,1-.24l.74-.19c.41-.11.84-.22,1.25-.35.8-.21,1.6-.45,2.38-.7l1.67-.54,1.85-.65c.61-.23,1.22-.45,1.84-.7l1.91-.78,1.82-.8c1.27-.57,2.52-1.17,3.75-1.81.53-.27,1.06-.55,1.58-.84,1.26-.68,2.49-1.39,3.71-2.14.47-.28.93-.58,1.39-.87l.08,0,1.56-1c.55-.37,1.09-.75,1.62-1.13l.83-.58c.25-.2.51-.38.76-.57l.54-.41,1-.78,1.51-1.22s0,0,0,0c.49-.41,1-.81,1.44-1.22l0,0L595,606l1.36-1.27c.51-.48,1-1,1.48-1.44.92-.93,1.83-1.87,2.71-2.85.39-.43.79-.87,1.17-1.31s.58-.66.84-1,.38-.43.56-.66q.63-.75,1.23-1.53c.49-.62,1-1.24,1.43-1.87.32-.43.63-.85.93-1.28s.75-1.07,1.12-1.62l1.09-1.64c.41-.63.8-1.27,1.19-1.92a.41.41,0,0,1,0-.09c.24-.39.47-.79.69-1.18s.38-.65.55-1a1.4,1.4,0,0,1,.09-.17h0l0,0a.13.13,0,0,1,0-.05c.28-.5.56-1,.81-1.51s.55-1,.79-1.52c.51-1,1-2.06,1.48-3.11s.92-2.09,1.35-3.16.72-1.85,1-2.78c.1-.27.19-.53.28-.81s.21-.61.31-.91.18-.51.26-.77q.74-2.3,1.35-4.65c.16-.65.32-1.31.47-2,.11-.4.19-.8.27-1.22s.16-.72.23-1.09c0-.08,0-.16,0-.24.07-.34.13-.67.19-1s.16-.89.24-1.34"
                          transform="translate(-173.81 -540.98)"
                          style="fill:none;stroke:#8bae94;stroke-miterlimit:10;stroke-width:1.99999994615531px"/>
                </g>
                <g id="a-8">
                    <circle id="c-8" cx="295.34" cy="127.2" r="81.8"
                            style="fill:none;stroke:#8bae94;stroke-miterlimit:10;stroke-width:1.99999994615531px"/>
                    <circle cx="295.34" cy="127.2" r="81.8"
                            style="fill:none;stroke:#8bae94;stroke-miterlimit:10;stroke-width:0px"/>
                    <path d="M326.76,667l.08.12c.2.36.4.72.61,1.08h0v0l.59,1,.09.15a82.32,82.32,0,0,0,17.92,20.89l1,.83c.34.28.69.54,1,.81l.75.57q.86.66,1.74,1.29l.13.1c.69.48,1.38,1,2.08,1.43l.09.07a79.22,79.22,0,0,0,6.93,4.14q1.82,1,3.69,1.86c.83.39,1.66.77,2.5,1.12.37.17.75.33,1.13.48.54.23,1.1.45,1.65.66,1.07.41,2.14.81,3.23,1.18s2.07.68,3.13,1c1.73.51,3.47,1,5.25,1.36a82.44,82.44,0,0,0,17.9,2h0q3.33,0,6.6-.26l.7-.06,1.09-.11,1.28-.14.86-.11c.44,0,.87-.11,1.3-.18s.88-.12,1.3-.2.88-.14,1.3-.22a80.72,80.72,0,0,0,22.37-7.46c.91-.46,1.8-.93,2.69-1.42A82.38,82.38,0,0,0,462.48,678c.43-.55.87-1.12,1.29-1.69.28-.36.54-.73.81-1.1s.55-.75.81-1.13.53-.76.79-1.15.52-.78.77-1.17a1.5,1.5,0,0,0,.15-.23c.72-1.11,1.41-2.23,2.07-3.38a79.71,79.71,0,0,0,4.84-9.86c.18-.42.36-.84.51-1.26a79.42,79.42,0,0,0,2.56-7.63l.28-1,.24-.91c.1-.37.19-.74.27-1.12.15-.57.27-1.15.4-1.72.07-.36.15-.71.22-1.07.27-1.32.51-2.65.71-4,.07-.44.13-.89.19-1.34.12-.9.23-1.79.32-2.71l.13-1.36c.18-2.28.28-4.58.28-6.91,0-.3,0-.58,0-.87s0-.57,0-.86,0-.57,0-.85c0-.48,0-1-.06-1.46s0-.78-.07-1.16a1,1,0,0,0,0-.17,80.92,80.92,0,0,0-9.81-33.81c-.1-.2-.2-.39-.31-.58l-.16-.28a.47.47,0,0,1-.07-.12l0,0c-.13-.23-.26-.47-.4-.69s-.39-.69-.6-1c-.11-.18-.21-.36-.31-.54-.21-.35-.42-.68-.64-1s-.55-.88-.85-1.31c-.43-.67-.87-1.32-1.32-2s-.87-1.21-1.3-1.81A82.31,82.31,0,0,0,448.86,563"
                          transform="translate(-173.81 -540.98)"
                          style="fill:none;stroke:#8bae94;stroke-miterlimit:10;stroke-width:1.99999994615531px"/>
                    <circle cx="366.19" cy="86.3" r="81.8"
                            style="fill:none;stroke:#8bae94;stroke-miterlimit:10;stroke-width:1.99999994615531px"/>
                    <path d="M479.79,552.93a81.36,81.36,0,0,1-10.62,33.45v0a81.76,81.76,0,0,1-70.83,40.88h0a81.51,81.51,0,0,1-34.22-7.49"
                          transform="translate(-173.81 -540.98)"
                          style="fill:none;stroke:#8bae94;stroke-miterlimit:10;stroke-width:1.99999994615531px"/>
                    <path d="M459.32,559.05a81.82,81.82,0,0,0,150.79,28.6.41.41,0,0,1,0-.09c.24-.39.47-.79.69-1.18s.44-.76.64-1.14h0l0,0a.13.13,0,0,1,0-.05,80.84,80.84,0,0,0,9.13-26.09"
                          transform="translate(-173.81 -540.98)"
                          style="fill:none;stroke:#8bae94;stroke-miterlimit:10;stroke-width:1.99999994615531px"/>
                    <path d="M388.18,598.06h0a81.1,81.1,0,0,0,9.33,27.82s0,0,0,0,0,0,0,.06l.74,1.3s0,0,0,0c.24.42.5.85.75,1.27a0,0,0,0,1,0,0,81.8,81.8,0,0,0,70.09,39.58h0A81.79,81.79,0,0,0,540,627.3h0a81.84,81.84,0,0,0,.49-80.93c-.16-.29-.32-.59-.49-.87,0,0,0,0,0,0"
                          transform="translate(-173.81 -540.98)"
                          style="fill:none;stroke:#8bae94;stroke-miterlimit:10;stroke-width:1.99999994615531px"/>
                </g>
            </g>
        </g>
        <g id="t-3">
            <g id="s-5">
                <circle cx="437.03" cy="209" r="81.8"
                        style="fill:none;stroke:#8bae94;stroke-miterlimit:10;stroke-width:1.99999997307765px"/>
                <g id="a-9">
                    <circle id="c-9" cx="507.87" cy="168.1" r="81.8"
                            style="fill:none;stroke:#8bae94;stroke-miterlimit:10;stroke-width:1.99999997307765px"/>
                    <circle cx="507.87" cy="168.1" r="81.8"
                            style="fill:none;stroke:#8bae94;stroke-miterlimit:10;stroke-width:0px"/>
                    <path d="M752.56,668.15a81.83,81.83,0,0,1-141.71.05s0,0,0,0a81.74,81.74,0,0,1-.73-80.53.41.41,0,0,1,0-.09c.21-.39.44-.79.67-1.18s.43-.76.66-1.14h0l0,0A81.08,81.08,0,0,1,631.13,563"
                          transform="translate(-173.81 -540.98)"
                          style="fill:none;stroke:#8bae94;stroke-miterlimit:10;stroke-width:1.99999997307765px"/>
                    <path d="M754.17,668.18l-1.6,0h-.05l-1.59,0h0a81.92,81.92,0,0,0-69.22,40.89,0,0,0,0,0,0,0,81.76,81.76,0,0,0,0,81.77h0a81.81,81.81,0,0,0,101.23,35.06"
                          transform="translate(-173.81 -540.98)"
                          style="fill:none;stroke:#8bae94;stroke-miterlimit:10;stroke-width:1.99999997307765px"/>
                    <path d="M700.38,605.14q8.08,7,15.53,14.64a245.75,245.75,0,0,1,36.63,48.34l0,0h0l1.6,0-1.59,0h-.08l-1.57,0h0a81.77,81.77,0,0,1-69.2-40.88v0h0a81.54,81.54,0,0,1-10.9-44.08"
                          transform="translate(-173.81 -540.98)"
                          style="fill:none;stroke:#8bae94;stroke-miterlimit:10;stroke-width:1.99999997307765px"/>
                    <path d="M752.54,668.12l0,0s0,0,0,0c-.23.38-.44.78-.66,1.18l0,0a81.77,81.77,0,0,0,.72,80.56v0a81.37,81.37,0,0,0,32.7,31.45"
                          transform="translate(-173.81 -540.98)"
                          style="fill:none;stroke:#8bae94;stroke-miterlimit:10;stroke-width:1.99999997307765px"/>
                    <path d="M752.56,668.15h0l1.6,0-1.59,0a243.59,243.59,0,0,1,28.51,76.65c-1.15.42-2.3.83-3.45,1.2l-1.32.42-1.64.47-1.23.34c-.31.08-.62.17-.93.24-.56.15-1.13.28-1.69.41h0c-.57.14-1.15.26-1.72.37s-1.15.24-1.72.35l-1.51.26-.48.08-1.44.21c-2.33.33-4.67.55-7,.68l-1.74.08h0l-1.63,0h-2l-1.21,0c-1.24,0-2.49-.09-3.72-.18-.93-.08-1.86-.16-2.8-.26s-1.64-.18-2.45-.3-1.89-.28-2.84-.45c-.38-.06-.77-.13-1.15-.21s-.85-.16-1.28-.25-.85-.17-1.28-.27l-1.26-.29-1.22-.3L731,747.1c-.41-.11-.83-.22-1.25-.35-.83-.23-1.66-.49-2.48-.76l-1.23-.41-1.34-.46-1.12-.42-1.22-.47-1.12-.46-.74-.31-1.18-.5c-.68-.3-1.36-.61-2-.93l-.89-.44-.69-.34-1.18-.61-1.16-.62a80.6,80.6,0,0,1-7.24-4.43l-1-.69c-.4-.29-.8-.57-1.2-.87l-.93-.69-1.14-.88-.94-.76c-.34-.28-.69-.55-1-.84l-1-.86-1-.88-1-.9a81.81,81.81,0,0,1-7.39-7.82c-.47-.56-.92-1.13-1.37-1.71-.09-.1-.16-.21-.25-.31l-.84-1.11c-.57-.76-1.13-1.54-1.67-2.32s-1-1.49-1.51-2.25c-.26-.4-.52-.79-.76-1.2-.49-.78-1-1.59-1.45-2.4v0h0a82,82,0,0,1-6.73-14.91q-1-3-1.78-6.07c0-.21-.1-.43-.16-.64q-.43-1.79-.78-3.57a81.65,81.65,0,0,1-1.45-18.6c0-.77.05-1.54.1-2.3s.14-1.76.22-2.64l.12-1.19q.16-1.36.36-2.73c.06-.43.13-.86.19-1.28.16-1,.34-1.95.53-2.91.15-.77.32-1.54.49-2.29l.12-.5c.08-.36.17-.73.27-1.09s.21-.88.33-1.3c.2-.73.4-1.47.62-2.2.11-.37.23-.75.35-1.12.45-1.45.94-2.9,1.48-4.33l.48-1.25c.17-.42.33-.83.5-1.24.1-.25.21-.5.31-.74l.42-1c.3-.65.59-1.31.9-2,.17-.36.34-.72.52-1.08.62-1.27,1.28-2.52,2-3.76l.6-1a.05.05,0,0,1,0,0,0,0,0,0,1,0,0l0,0c.28-.5.58-1,.88-1.49s.51-.85.78-1.27c.06-.09.11-.18.17-.26.31-.5.64-1,1-1.51s.67-1,1-1.49l.82-1.15.5-.67c.27-.37.54-.73.82-1.09s.74-.95,1.12-1.42.77-.94,1.16-1.4.78-.93,1.19-1.38.77-.87,1.15-1.3,1-1,1.44-1.51l.87-.88c.53-.55,1.08-1.08,1.63-1.6s.89-.83,1.35-1.24.91-.82,1.38-1.22.94-.81,1.42-1.2"
                          transform="translate(-173.81 -540.98)"
                          style="fill:none;stroke:#8bae94;stroke-miterlimit:10;stroke-width:1.99999997307765px"/>
                </g>
                <g id="a-10">
                    <circle id="c-10" cx="437.03" cy="127.2" r="81.8"
                            style="fill:none;stroke:#8bae94;stroke-miterlimit:10;stroke-width:1.99999997307765px"/>
                    <circle cx="437.03" cy="127.2" r="81.8"
                            style="fill:none;stroke:#8bae94;stroke-miterlimit:10;stroke-width:0px"/>
                    <path d="M540.74,544.19l0,.08,0,.07c-.22.38-.45.76-.66,1.14h0c-.16.28-.33.58-.48.87l-.1.17a81.81,81.81,0,1,0,152.41,51.54"
                          transform="translate(-173.81 -540.98)"
                          style="fill:none;stroke:#8bae94;stroke-miterlimit:10;stroke-width:1.99999997307765px"/>
                    <circle cx="507.87" cy="168.1" r="81.8"
                            style="fill:none;stroke:#8bae94;stroke-miterlimit:10;stroke-width:1.99999997307765px"/>
                    <path d="M715.91,619.78a81.41,81.41,0,0,1-34.22,7.52h0a81.79,81.79,0,0,1-70.82-40.92v0a81.23,81.23,0,0,1-10.63-33.44"
                          transform="translate(-173.81 -540.98)"
                          style="fill:none;stroke:#8bae94;stroke-miterlimit:10;stroke-width:1.99999997307765px"/>
                    <path d="M754.17,668.18l-1.6,0h0l0,0a245.75,245.75,0,0,0-36.63-48.34q-7.44-7.65-15.53-14.64c-.48.39-1,.79-1.42,1.2s-.93.81-1.38,1.22-.91.82-1.35,1.24-1.1,1.05-1.63,1.6l-.87.88c-.49.49-1,1-1.44,1.51s-.78.86-1.15,1.3-.81.91-1.19,1.38-.78.93-1.16,1.4-.75.94-1.12,1.42-.55.72-.82,1.09l-.5.67-.82,1.15c-.34.5-.69,1-1,1.49s-.67,1-1,1.51c-.06.08-.11.17-.17.26-.27.42-.53.84-.78,1.27s-.6,1-.88,1.49l0,0a0,0,0,0,0,0,0,.05.05,0,0,0,0,0l-.6,1c-.68,1.24-1.34,2.49-2,3.76-.18.36-.35.72-.52,1.08-.31.65-.6,1.31-.9,2l-.42,1c-.1.24-.21.49-.31.74-.17.41-.33.82-.5,1.24L676,639.4c-.54,1.43-1,2.88-1.48,4.33-.12.37-.24.75-.35,1.12-.22.73-.42,1.47-.62,2.2-.12.42-.23.86-.33,1.3s-.19.73-.27,1.09l-.12.5c-.17.75-.34,1.52-.49,2.29-.19,1-.37,1.94-.53,2.91-.06.42-.13.85-.19,1.28q-.2,1.37-.36,2.73l-.12,1.19c-.08.88-.15,1.76-.22,2.64s-.08,1.53-.1,2.3a81.65,81.65,0,0,0,1.45,18.6q.35,1.79.78,3.57c.06.21.11.43.16.64q.76,3.06,1.78,6.07a82,82,0,0,0,6.73,14.91h0v0c.47.81,1,1.62,1.45,2.4.24.41.5.8.76,1.2.49.76,1,1.51,1.51,2.25s1.1,1.56,1.67,2.32l.84,1.11c.09.1.16.21.25.31.45.58.91,1.15,1.37,1.71a81.81,81.81,0,0,0,7.39,7.82l1,.9,1,.88,1,.86c.33.29.68.56,1,.84l.94.76,1.14.88.93.69c.4.3.8.58,1.2.87l1,.69a80.6,80.6,0,0,0,7.24,4.43l1.16.62,1.18.61.69.34.89.44c.67.32,1.35.63,2,.93l1.18.5.74.31,1.12.46,1.22.47,1.12.42,1.34.46,1.23.41c.82.27,1.65.53,2.48.76.42.13.84.24,1.25.35l1.31.35,1.22.3,1.26.29c.43.1.85.19,1.28.27s.85.18,1.28.25.77.15,1.15.21c1,.17,1.89.32,2.84.45s1.63.22,2.45.3,1.87.18,2.8.26c1.23.08,2.48.15,3.72.18l1.21,0h2l1.63,0h0l1.74-.08c2.33-.13,4.67-.35,7-.68l1.44-.21.48-.08,1.51-.26c.57-.11,1.15-.22,1.72-.35s1.15-.23,1.72-.37h0c.56-.13,1.13-.26,1.69-.41.31-.07.62-.16.93-.24l1.23-.34,1.64-.47,1.32-.42c1.15-.37,2.3-.78,3.45-1.2"
                          transform="translate(-173.81 -540.98)"
                          style="fill:none;stroke:#8bae94;stroke-miterlimit:10;stroke-width:1.99999997307765px"/>
                    <path d="M752.56,668.15h0s0,0,0,0l-.65,1.1,0,.05a.13.13,0,0,1,0,.07,81.95,81.95,0,0,1-70.12,39.68h0A81.82,81.82,0,0,1,631.13,563"
                          transform="translate(-173.81 -540.98)"
                          style="fill:none;stroke:#8bae94;stroke-miterlimit:10;stroke-width:1.99999997307765px"/>
                </g>
            </g>
            <g id="s-6">
                <circle cx="437.03" cy="290.81" r="81.8"
                        style="fill:none;stroke:#8bae94;stroke-miterlimit:10;stroke-width:1.99999994615531px"/>
                <g id="a-11">
                    <circle id="c-11" cx="507.87" cy="331.71" r="81.8"
                            style="fill:none;stroke:#8bae94;stroke-miterlimit:10;stroke-width:1.99999994615531px"/>
                    <g style="clip-path:url(#clip-path-3)">
                        <circle cx="578.71" cy="290.81" r="81.8"
                                style="fill:none;stroke:#8bae94;stroke-miterlimit:10;stroke-width:1.99999994615531px"/>
                        <circle cx="507.87" cy="413.51" r="81.8"
                                style="fill:none;stroke:#8bae94;stroke-miterlimit:10;stroke-width:1.99999994615531px"/>
                        <circle cx="649.56" cy="331.71" r="81.8"
                                style="fill:none;stroke:#8bae94;stroke-miterlimit:10;stroke-width:1.99999994615531px"/>
                        <circle cx="578.71" cy="454.41" r="81.8"
                                style="fill:none;stroke:#8bae94;stroke-miterlimit:10;stroke-width:1.99999994615531px"/>
                        <circle cx="578.71" cy="372.61" r="81.8"
                                style="fill:none;stroke:#8bae94;stroke-miterlimit:10;stroke-width:1.99999994615531px"/>
                    </g>
                    <circle id="SVGID-7" cx="507.87" cy="331.71" r="81.8"
                            style="fill:none;stroke:#8bae94;stroke-miterlimit:10;stroke-width:0px"/>
                </g>
                <g id="a-12">
                    <circle id="c-12" cx="507.87" cy="249.91" r="81.8"
                            style="fill:none;stroke:#8bae94;stroke-miterlimit:10;stroke-width:1.99999994615531px"/>
                    <g style="clip-path:url(#clip-path-4)">
                        <circle cx="578.71" cy="209" r="81.8"
                                style="fill:none;stroke:#8bae94;stroke-miterlimit:10;stroke-width:1.99999994615531px"/>
                        <circle cx="507.87" cy="331.71" r="81.8"
                                style="fill:none;stroke:#8bae94;stroke-miterlimit:10;stroke-width:1.99999994615531px"/>
                        <circle cx="649.56" cy="249.91" r="81.8"
                                style="fill:none;stroke:#8bae94;stroke-miterlimit:10;stroke-width:1.99999994615531px"/>
                        <circle cx="578.71" cy="372.61" r="81.8"
                                style="fill:none;stroke:#8bae94;stroke-miterlimit:10;stroke-width:1.99999994615531px"/>
                        <circle cx="578.71" cy="290.81" r="81.8"
                                style="fill:none;stroke:#8bae94;stroke-miterlimit:10;stroke-width:1.99999994615531px"/>
                    </g>
                    <circle id="SVGID-8" cx="507.87" cy="249.91" r="81.8"
                            style="fill:none;stroke:#8bae94;stroke-miterlimit:10;stroke-width:0px"/>
                </g>
            </g>
        </g>
        <path d="M303.81,857.72a82.44,82.44,0,0,0,23.66-25.92,81.94,81.94,0,0,0,0-81.81,82.44,82.44,0,0,0-23.66-25.92"
              transform="translate(-173.81 -540.98)"
              style="fill:none;stroke:#8bae94;stroke-miterlimit:10;stroke-width:2px"/>
        <path d="M297.09,755.85A81.79,81.79,0,1,1,327.46,913.6h0" transform="translate(-173.81 -540.98)"
              style="fill:none;stroke:#8bae94;stroke-miterlimit:10;stroke-width:2px"/>
        <path d="M294.77,800.3a81.87,81.87,0,0,1,32.69,113.3h0v0" transform="translate(-173.81 -540.98)"
              style="fill:none;stroke:#8bae94;stroke-miterlimit:10;stroke-width:2px"/>
        <path d="M409.19,998.55c.05-1,.07-2.11.07-3.16a81.4,81.4,0,0,0-10.94-40.89v0h0a81.74,81.74,0,0,0-70.83-40.87h0"
              transform="translate(-173.81 -540.98)"
              style="fill:none;stroke:#8bae94;stroke-miterlimit:10;stroke-width:2px"/>
        <path d="M670.81,998.57c0-1.06-.07-2.12-.07-3.18a81.42,81.42,0,0,1,11-40.9h0a81.73,81.73,0,0,1,70.83-40.88h0"
              transform="translate(-173.81 -540.98)"
              style="fill:none;stroke:#8bae94;stroke-miterlimit:10;stroke-width:2px"/>
        <path d="M540,1036.31h0" transform="translate(-173.81 -540.98)"
              style="fill:none;stroke:#8bae94;stroke-miterlimit:10;stroke-width:2px"/>
        <path d="M752.59,913.56h-.06a81.81,81.81,0,0,1-70.85-122.68h0a81.76,81.76,0,0,1,70-40.88h1.83a81.41,81.41,0,0,1,29.44,5.83"
              transform="translate(-173.81 -540.98)"
              style="fill:none;stroke:#8bae94;stroke-miterlimit:10;stroke-width:2px"/>
        <path d="M752.53,913.67l-.06-.11a81.79,81.79,0,0,1,32.75-113.22" transform="translate(-173.81 -540.98)"
              style="fill:none;stroke:#8bae94;stroke-miterlimit:10;stroke-width:2px"/>
        <path d="M776.19,857.71a81.81,81.81,0,0,1,0-133.67" transform="translate(-173.81 -540.98)"
              style="fill:none;stroke:#8bae94;stroke-miterlimit:10;stroke-width:2px"/>
        <path d="M781.09,836.89a81.55,81.55,0,0,0-28.53-5.12h0a81.79,81.79,0,0,0-52.09,144.82"
              transform="translate(-173.81 -540.98)"
              style="fill:none;stroke:#8bae94;stroke-miterlimit:10;stroke-width:2px"/>
        <path d="M600.23,1028.84A81.82,81.82,0,0,1,715.9,962" transform="translate(-173.81 -540.98)"
              style="fill:none;stroke:#8bae94;stroke-miterlimit:10;stroke-width:2px"/>
    </g>
</svg>

